<svg width="77" height="76" viewBox="0 0 77 76" fill="none" xmlns="http://www.w3.org/2000/svg">
<path d="M65.5484 0C66.0903 1.48435 66.4646 7.95115 66.6963 9.94589C70.1143 10.4261 73.5749 10.6594 77 11.1105C73.2736 14.5538 69.7131 18.272 66.1634 21.899L59.1977 21.0993C54.4933 25.5868 49.9806 30.3003 45.3772 34.8916C42.9081 37.354 40.1948 39.6117 37.9068 42.2467C37.9458 42.8948 38.0072 43.5743 37.9537 44.222C37.8399 45.5976 37.128 47.0415 36.0488 47.9186C34.9425 48.8176 33.4213 49.208 32.0099 49.0444C30.4894 48.868 29.0617 48.0216 28.1376 46.8146C27.3359 45.7676 26.8974 44.3951 27.0805 43.0802C27.3091 41.4388 28.5102 40.005 29.8328 39.0653C31.2487 38.0595 32.6947 38.2479 34.3009 38.5255C35.6591 37.1366 37.082 35.8215 38.5074 34.5019C36.8158 33.5257 35.0275 32.8423 33.0543 32.7532C30.0885 32.6159 27.1925 33.6734 25.0217 35.6862C22.9105 37.6265 21.6572 40.2113 21.5581 43.086C21.4528 46.1451 22.4324 49.0351 24.5625 51.2789C26.5213 53.3423 29.3962 54.5815 32.2425 54.6481C35.2184 54.7177 38.0143 53.6629 40.1662 51.6124C42.6911 49.2063 43.6689 46.2524 43.7306 42.8336C45.6023 40.5385 47.9109 38.4919 50.0054 36.3914C50.2481 37.0016 50.4669 37.6211 50.6612 38.2483C52.0617 42.8433 51.4288 48.4747 49.1335 52.6899C46.7954 56.984 42.5077 60.3381 37.8056 61.7006C32.9905 63.0598 27.8311 62.4867 23.4367 60.1047C19.0174 57.6858 15.7605 53.4303 14.3859 48.6221C13.0486 43.8452 13.6902 38.7351 16.168 34.4313C18.6555 30.1024 22.7774 26.9378 27.6205 25.6391C33.8855 23.9324 38.6653 25.6614 44.0687 28.7299C45.5623 27.5109 46.9442 26.0909 48.3548 24.7746C42.6684 20.7603 36.7402 18.5914 29.6887 19.3642C22.726 20.1274 16.9821 23.7717 12.6603 29.1215C11.5526 30.6361 10.6002 32.2568 9.81667 33.9596C7.23961 39.7468 7.08212 46.3143 9.37874 52.217C11.6461 58.3103 16.2664 63.2529 22.2145 65.9479C28.2668 68.711 35.1831 68.9388 41.406 66.5796C47.5468 64.2252 52.4978 59.5473 55.1739 53.5711C57.3775 48.6775 57.9845 42.8892 56.5874 37.6827C56.0659 35.739 55.2438 33.8659 54.5186 31.9896C56.3073 30.0643 58.2126 28.2343 60.075 26.3789C62.1821 29.575 63.6443 33.6404 64.4304 37.3693C66.141 45.7233 64.4289 54.4102 59.6733 61.5055C54.8867 68.6687 47.4338 73.6498 38.9527 75.3536C30.4684 77.0679 21.6467 75.3401 14.4514 70.5548C7.5039 65.9324 2.26889 58.3814 0.645578 50.1995C-1.02049 41.8023 0.534642 33.1988 5.35238 26.0717C10.2659 18.8029 17.6695 13.721 26.3409 12.0373C33.0731 10.7299 40.3442 11.5673 46.5012 14.6258C49.0419 15.8877 51.3967 17.5096 53.7496 19.0831C54.3957 18.604 54.9919 18.0597 55.5965 17.5307C55.4133 15.1934 54.9519 12.881 54.7675 10.5391C58.4774 7.15236 61.9142 3.46789 65.5484 0Z" fill="#213855"/>
</svg>
