<svg width="58" height="68" viewBox="0 0 58 68" fill="none" xmlns="http://www.w3.org/2000/svg">
<mask id="mask0_361_3343" style="mask-type:luminance" maskUnits="userSpaceOnUse" x="3" y="1" width="52" height="67">
<path d="M3.4541 1.4707H54.8749V68.0004H3.4541V1.4707Z" fill="white"/>
</mask>
<g mask="url(#mask0_361_3343)">
<path d="M53.8423 2.80715C52.5232 1.49734 50.3834 1.49734 49.0643 2.80715L39.6997 12.0969C36.9382 14.8376 33.193 16.3769 29.2865 16.3769C25.3815 16.3769 21.6363 14.8376 18.8733 12.0969L9.44855 2.74582C8.12792 1.43759 5.9896 1.43759 4.66897 2.74582C3.34993 4.05406 3.34993 6.1768 4.66897 7.4866L19.207 21.9086V63.7092C19.207 66.0788 21.1429 67.9987 23.5311 67.9987C25.9177 67.9987 27.8536 66.0788 27.8536 63.7092V44.5606C27.8536 43.9128 28.3881 43.364 29.0397 43.375C29.674 43.3876 30.1817 43.9002 30.1817 44.5307V63.7092C30.1817 66.0788 32.1175 67.9987 34.5057 67.9987C36.8939 67.9987 38.8298 66.0788 38.8298 63.7092V22.4417L53.8423 7.54635C55.1629 6.23812 55.1629 4.11538 53.8423 2.80715Z" fill="#213855"/>
</g>
<path d="M34.3271 2.08343C34.4932 2.24853 34.6513 2.41992 34.8 2.60075C34.9487 2.78157 35.0894 2.96711 35.2191 3.16209C35.3504 3.3555 35.4706 3.55519 35.5813 3.76117C35.692 3.96559 35.7917 4.17629 35.8818 4.39171C35.972 4.60712 36.051 4.82569 36.119 5.04897C36.1871 5.27225 36.244 5.49867 36.2899 5.72667C36.3357 5.95467 36.3705 6.18581 36.3927 6.41695C36.4164 6.64967 36.4275 6.88081 36.4275 7.1151C36.4275 7.34781 36.4164 7.58053 36.3927 7.81167C36.3705 8.04438 36.3357 8.27396 36.2899 8.50195C36.244 8.73152 36.1871 8.95638 36.119 9.17966C36.051 9.40294 35.972 9.6215 35.8818 9.83692C35.7917 10.0523 35.692 10.263 35.5813 10.469C35.4706 10.6734 35.3504 10.8731 35.2191 11.0681C35.0894 11.2615 34.9487 11.4486 34.8 11.6279C34.6513 11.8087 34.4932 11.9817 34.3271 12.1452C34.161 12.3103 33.9871 12.4675 33.8052 12.6153C33.6249 12.7632 33.4367 12.9015 33.2405 13.0305C33.046 13.1594 32.8436 13.2805 32.6364 13.389C32.4292 13.499 32.2173 13.5997 32.0006 13.6877C31.7839 13.7773 31.5625 13.856 31.3379 13.9236C31.1133 13.9912 30.8856 14.0478 30.6546 14.0934C30.4253 14.139 30.1928 14.172 29.9587 14.1956C29.7247 14.2176 29.4906 14.2302 29.2565 14.2302C29.0209 14.2302 28.7868 14.2176 28.5527 14.1956C28.3202 14.172 28.0877 14.139 27.8568 14.0934C27.6259 14.0478 27.3997 13.9912 27.1736 13.9236C26.949 13.856 26.7291 13.7773 26.5109 13.6877C26.2942 13.5997 26.0823 13.499 25.8751 13.389C25.6679 13.2805 25.467 13.161 25.2725 13.0305C25.0764 12.9015 24.8881 12.7632 24.7063 12.6153C24.5244 12.4675 24.3504 12.3103 24.1843 12.1452C24.0183 11.9817 23.8617 11.8087 23.713 11.6279C23.5628 11.4486 23.4236 11.2615 23.2923 11.0681C23.1626 10.8747 23.0424 10.675 22.9317 10.469C22.821 10.263 22.7198 10.0523 22.6296 9.83692C22.5411 9.62307 22.462 9.40294 22.3924 9.17966C22.3244 8.95795 22.2674 8.73152 22.2216 8.50352C22.1757 8.27396 22.1425 8.04438 22.1188 7.81167C22.0951 7.58053 22.084 7.34781 22.084 7.1151C22.084 6.88238 22.0951 6.64967 22.1188 6.41695C22.1425 6.18581 22.1757 5.95467 22.2216 5.72667C22.2674 5.49867 22.3244 5.27225 22.3924 5.04897C22.4604 4.82569 22.5395 4.60712 22.6296 4.39171C22.7198 4.17629 22.821 3.96559 22.9317 3.76117C23.0424 3.55519 23.1626 3.3555 23.2923 3.16209C23.4236 2.96869 23.5628 2.78157 23.7114 2.60075C23.8617 2.42149 24.0183 2.24853 24.1843 2.08343C24.3504 1.91832 24.5244 1.76266 24.7063 1.61485C24.8881 1.46705 25.0764 1.32868 25.2709 1.19817C25.467 1.06923 25.6679 0.949728 25.8751 0.83966C26.0823 0.729592 26.2942 0.630531 26.5109 0.540905C26.7291 0.451278 26.949 0.374231 27.1736 0.306617C27.3981 0.239004 27.6259 0.182398 27.8568 0.136799C28.0877 0.0911992 28.3186 0.0566061 28.5527 0.0345927C28.7868 0.0110067 29.0209 0 29.2565 0C29.4906 0 29.7247 0.0110066 29.9587 0.0330203C30.1928 0.056606 30.4253 0.0911992 30.6546 0.136799C30.8856 0.182398 31.1133 0.239004 31.3379 0.306617C31.5625 0.374231 31.7839 0.451278 32.0006 0.540905C32.2173 0.630531 32.4292 0.729592 32.6364 0.83966C32.8436 0.949728 33.0444 1.06923 33.2405 1.19817C33.4351 1.32868 33.6249 1.46705 33.8052 1.61485C33.9871 1.76266 34.161 1.91832 34.3271 2.08343Z" fill="#213855"/>
<mask id="mask1_361_3343" style="mask-type:luminance" maskUnits="userSpaceOnUse" x="40" y="28" width="18" height="39">
<path d="M40.7036 28.0371H57.9999V66.6804H40.7036V28.0371Z" fill="white"/>
</mask>
<g mask="url(#mask1_361_3343)">
<path d="M54.0142 28.1627V28.1611H41.0625V64.1738C41.0625 65.4725 42.1237 66.5261 43.4333 66.5261C44.7429 66.5261 45.8041 65.4725 45.8041 64.1738V48.3083C45.8041 47.6447 46.3181 47.0739 46.9856 47.0441C47.6989 47.0095 48.2872 47.574 48.2872 48.2737V64.125C48.2872 65.4065 49.2994 66.4899 50.59 66.5245C51.9296 66.5606 53.0273 65.4946 53.0273 64.1738V33.9947C53.0273 33.7479 53.2297 33.5466 53.478 33.5466C53.7279 33.5466 53.9303 33.7479 53.9303 33.9947V43.0109C53.9303 44.1241 54.8398 45.0267 55.9611 45.0267C57.084 45.0267 57.9935 44.1241 57.9935 43.0109V32.1912C57.9935 29.993 56.2189 28.2067 54.0142 28.1627Z" fill="#213855"/>
</g>
<path d="M49.9944 19.6285C50.2079 19.8392 50.3961 20.0672 50.5638 20.3156C50.7298 20.5625 50.8706 20.8235 50.986 21.0987C51.1015 21.3738 51.1869 21.6584 51.2454 21.9493C51.3039 22.2418 51.334 22.5374 51.334 22.8346C51.334 23.1318 51.3039 23.4274 51.2454 23.7199C51.1869 24.0108 51.1015 24.2954 50.986 24.5705C50.8706 24.8457 50.7298 25.1067 50.5638 25.3536C50.3961 25.602 50.2079 25.83 49.9944 26.0407C49.7825 26.2514 49.5515 26.4401 49.3032 26.6052C49.0533 26.7703 48.7892 26.9103 48.5124 27.025C48.2357 27.1383 47.9494 27.2247 47.6552 27.2829C47.361 27.3411 47.0637 27.3694 46.7632 27.3694C46.4627 27.3694 46.1653 27.3411 45.8712 27.2829C45.577 27.2247 45.2907 27.1383 45.0139 27.025C44.7372 26.9103 44.473 26.7703 44.2231 26.6052C43.9733 26.4401 43.7423 26.2514 43.5304 26.0407C43.3185 25.8316 43.1287 25.602 42.9626 25.3536C42.795 25.1067 42.6542 24.8457 42.5403 24.5705C42.4249 24.2954 42.3379 24.0123 42.2794 23.7199C42.2209 23.4274 42.1924 23.1334 42.1924 22.8346C42.1924 22.5374 42.2209 22.2418 42.2794 21.9509C42.3379 21.6584 42.4249 21.3738 42.5403 21.0987C42.6542 20.8251 42.795 20.5625 42.9626 20.3156C43.1287 20.0672 43.3185 19.8392 43.5304 19.6285C43.7423 19.4178 43.9733 19.2291 44.2231 19.064C44.473 18.8989 44.7356 18.7589 45.0139 18.6457C45.2907 18.5309 45.577 18.4445 45.8712 18.3863C46.1653 18.3297 46.4627 18.2998 46.7632 18.2998C47.0637 18.2998 47.3594 18.3297 47.6552 18.3863C47.9494 18.4445 48.2341 18.5309 48.5124 18.6457C48.7892 18.7589 49.0533 18.8989 49.3016 19.064C49.5515 19.2291 49.7825 19.4178 49.9944 19.6285Z" fill="#213855"/>
<mask id="mask2_361_3343" style="mask-type:luminance" maskUnits="userSpaceOnUse" x="0" y="28" width="18" height="39">
<path d="M0 28.0371H17.2204V66.6804H0V28.0371Z" fill="white"/>
</mask>
<g mask="url(#mask2_361_3343)">
<path d="M4.97109 28.1611H3.98575V28.1627C1.77943 28.2067 0.00488281 29.993 0.00488281 32.1912V43.0109C0.00488281 44.1241 0.915881 45.0267 2.03723 45.0267C3.15858 45.0267 4.068 44.1241 4.068 43.0109V33.9947C4.068 33.7479 4.27044 33.5466 4.52033 33.5466C4.77022 33.5466 4.97109 33.7479 4.97109 33.9947V64.1738C4.97109 65.4946 6.06871 66.5606 7.40832 66.5245C8.6989 66.4899 9.7127 65.4065 9.7127 64.125V48.2737C9.7127 47.574 10.3011 47.0095 11.0128 47.0441C11.6818 47.0739 12.1942 47.6447 12.1942 48.3083V64.1738C12.1942 65.4725 13.2555 66.5261 14.565 66.5261C15.8746 66.5261 16.9358 65.4725 16.9358 64.1738V28.1611H4.97109Z" fill="#213855"/>
</g>
<path d="M14.4666 19.6285C14.6785 19.8392 14.8683 20.0672 15.0359 20.3156C15.202 20.5625 15.3428 20.8235 15.4582 21.0987C15.5721 21.3738 15.6591 21.6584 15.7176 21.9493C15.7761 22.2418 15.8062 22.5374 15.8062 22.8346C15.8062 23.1318 15.7761 23.4274 15.7176 23.7199C15.6591 24.0108 15.5721 24.2954 15.4582 24.5705C15.3428 24.8457 15.202 25.1067 15.0359 25.3536C14.8683 25.602 14.6801 25.83 14.4666 26.0407C14.2546 26.2514 14.0237 26.4401 13.7738 26.6052C13.5255 26.7703 13.2614 26.9103 12.9846 27.0235C12.7062 27.1383 12.4216 27.2247 12.1274 27.2829C11.8316 27.3411 11.5343 27.3694 11.2354 27.3694C10.9349 27.3694 10.6375 27.3411 10.3433 27.2829C10.0492 27.2247 9.76289 27.1383 9.48611 27.025C9.20775 26.9103 8.94521 26.7703 8.69532 26.6052C8.44543 26.4401 8.21451 26.2514 8.00258 26.0407C7.79065 25.83 7.60085 25.602 7.43479 25.3536C7.26714 25.1067 7.12638 24.8457 7.0125 24.5705C6.89705 24.2954 6.81006 24.0108 6.75154 23.7199C6.69302 23.4274 6.66455 23.1318 6.66455 22.8346C6.66455 22.5374 6.69302 22.2418 6.75154 21.9493C6.81006 21.6584 6.89705 21.3738 7.0125 21.0987C7.12638 20.8235 7.26714 20.5625 7.43479 20.3156C7.60085 20.0672 7.79065 19.8392 8.00258 19.6285C8.21451 19.4178 8.44543 19.2291 8.69532 19.064C8.94521 18.8989 9.20775 18.7589 9.48611 18.6457C9.76289 18.5309 10.0492 18.4445 10.3433 18.3863C10.6375 18.3281 10.9349 18.2998 11.2354 18.2998C11.5343 18.2998 11.8316 18.3281 12.1258 18.3863C12.4216 18.4445 12.7062 18.5309 12.9846 18.6442C13.2614 18.7589 13.5239 18.8989 13.7738 19.064C14.0237 19.2291 14.2546 19.4178 14.4666 19.6285Z" fill="#213855"/>
</svg>
