<svg width="77" height="76" viewBox="0 0 77 76" fill="none" xmlns="http://www.w3.org/2000/svg">
<path d="M40.0912 0.12C39.8736 0.0856513 39.655 0.0574613 39.4356 0.0352469C37.8032 -0.126788 36.1063 0.262429 34.833 1.35691C33.6604 2.36515 32.9819 3.80629 32.876 5.35887C32.7308 7.49183 33.6241 8.9298 34.9229 10.4671C31.6614 8.62757 28.4108 6.76809 25.1712 4.88882C23.0928 3.68308 20.9669 2.26192 18.7547 1.34385C18.2184 1.12114 17.7337 0.949958 17.1496 1.05618C16.4342 1.18629 15.6172 1.87083 15.244 2.4947C14.8733 3.11447 14.8161 4.01592 14.9911 4.70756C15.1227 5.22857 15.3533 5.59595 15.7445 5.95138C17.0893 7.17262 18.9235 8.05653 20.4772 8.98468C23.7583 10.9448 27.0587 12.8713 30.3779 14.7636C30.7568 18.126 31.0819 21.4944 31.3531 24.8676C28.609 23.335 26.3696 20.1152 23.0556 19.9351C21.9862 19.877 20.9306 20.1824 20.1409 20.939C19.1405 21.8971 18.7002 23.3164 18.6916 24.6884C18.6776 26.9612 19.1137 31.9453 20.7577 33.5503C21.1885 33.9709 21.7771 34.3151 22.3935 34.264C23.0244 34.2117 23.5302 33.7661 23.9094 33.286C25.2157 31.633 24.1992 28.4477 24.0116 26.4596C26.6917 28.3967 29.3479 30.3679 31.98 32.372L42.7405 40.479C44.7822 42.0312 46.8168 43.7759 48.9839 45.1337C49.5479 45.4871 50.2741 45.9456 50.9629 45.9228C51.7497 45.8969 52.3582 45.3695 52.8359 44.7819C53.2377 44.2876 53.4796 43.9276 53.4055 43.2582C53.1152 40.6304 45.2134 35.5586 43.0004 33.701C42.6554 29.5119 42.1291 25.2845 42.0488 21.0822C44.4325 22.3393 50.4951 27.0081 52.9558 26.3644C53.5467 26.2098 54.0017 25.7964 54.3096 25.2705C54.7124 24.5831 54.8758 23.6781 54.6788 22.8978C54.5216 22.2758 54.1697 21.8806 53.6889 21.4879C52.0908 20.1824 50.0494 19.2212 48.2608 18.1958C44.3727 15.9669 40.4213 13.8269 36.5762 11.5248C37.9945 11.749 39.2353 11.8866 40.6126 11.3609C42.1076 10.7816 43.3046 9.60445 43.9249 8.10357C44.5429 6.63798 44.5422 4.97843 43.923 3.51339C43.1689 1.73306 41.7902 0.803607 40.0912 0.12Z" fill="#213855"/>
<path d="M15.8328 41.0425C10.568 40.8402 5.26959 40.9113 0 40.8682C4.04563 47.4188 7.09911 54.6404 11.1326 61.211C12.5532 59.1325 13.7418 56.8196 15.0879 54.6775C20.8523 57.7976 26.4122 61.5121 32.0104 64.9443C34.201 66.2877 36.4327 67.8695 38.7477 68.9541C42.1489 66.827 45.5224 64.6544 48.8673 62.4367C54.1348 64.8008 59.3113 67.4702 64.5081 69.9977C68.648 72.0502 72.8122 74.0511 77 76.0004C67.5799 68.4992 58.3728 60.72 48.9373 53.2364C45.6748 55.618 42.0682 57.7599 38.5966 59.8167C31.9695 56.0714 25.5579 51.8214 19.0192 47.9036C20.1557 45.5972 21.6898 43.3592 23.002 41.1448C20.6184 41.0498 18.2187 41.073 15.8328 41.0425Z" fill="#213855"/>
<path d="M53.6112 33.2432C53.0321 33.546 52.4865 34.747 52.1307 35.322C54.9905 37.0446 57.7104 39.0454 60.4719 40.9269C63.682 43.114 66.9521 45.2181 70.0881 47.5149C70.5273 47.3042 71.2081 45.855 71.5024 45.367C65.4336 41.5932 59.5836 37.2132 53.6112 33.2432Z" fill="#213855"/>
<path d="M62.7661 29.3135C62.1634 29.8166 61.702 30.6603 61.2534 31.3103C64.8921 33.9882 68.6874 36.7185 72.5062 39.1203C73.1184 38.6945 73.6247 37.8319 74.0815 37.2317C70.5061 34.4015 66.514 31.9157 62.7661 29.3135Z" fill="#213855"/>
<path d="M59.0365 47.2539C58.333 47.661 57.8553 48.4921 57.3821 49.1457C58.9192 50.4412 60.6141 51.616 62.2182 52.8284C62.9349 52.5421 63.4849 51.5783 63.978 50.9669C62.2976 49.7664 60.6498 48.5472 59.0365 47.2539Z" fill="#213855"/>
<path d="M74.4209 47.4482C73.7587 47.8182 73.2248 48.7034 72.7555 49.3012C73.5509 49.8543 74.3914 50.3499 75.2121 50.8637C75.9255 50.5543 76.3816 49.573 76.8296 48.9235L74.4209 47.4482Z" fill="#213855"/>
</svg>
