<svg width="72" height="82" viewBox="0 0 72 82" fill="none" xmlns="http://www.w3.org/2000/svg">
<path d="M41.8488 0.0534343C41.7103 0.0420855 41.5698 0.033421 41.4313 0.0270244C33.5672 -0.323965 25.5481 2.76581 19.7591 8.02363C13.4203 13.7067 9.63605 21.6955 9.25783 30.1929C8.88374 38.8205 12.3766 46.7546 18.1222 53.0466C14.2036 58.206 10.1672 63.2957 6.1804 68.4031C4.2955 70.8148 1.9249 73.3082 0.467834 75.974C0.116478 76.6153 -0.0219955 77.321 0.00280762 78.0481C0.0400085 79.1711 0.525711 80.2321 1.35448 80.9931C2.10886 81.6728 3.15258 82.0539 4.16943 81.9938C7.49487 81.797 12.2629 73.8584 14.5178 71.2564C17.8081 66.9591 21.0612 62.6102 24.5168 58.4431C28.8901 60.6033 33.3337 62.1732 38.2299 62.5652C46.437 63.201 54.5636 60.5773 60.8424 55.2648C67.3466 49.707 71.3396 41.7737 71.9265 33.2476C72.5238 25.0261 69.4402 16.7247 64.0728 10.5544C58.3582 3.98571 50.4156 0.671844 41.8488 0.0534343ZM38.11 55.3688C24.8248 53.983 15.1791 42.1115 16.5577 28.8477C17.9383 15.584 29.8243 5.94617 43.1095 7.3167C56.4072 8.68805 66.0693 20.5658 64.6887 33.8406C63.3081 47.1155 51.4035 56.756 38.11 55.3688Z" fill="#213855"/>
<path d="M38.4756 24.136L32.3579 24.1348L32.3972 42.8587C32.4013 45.4446 32.0934 48.5536 32.5005 51.0866C32.5956 51.6772 32.7134 51.6941 33.1908 52.0325C34.8939 52.6022 36.6093 52.9961 38.3681 53.3461C38.3268 43.6094 38.3619 33.8723 38.4756 24.136Z" fill="#213855"/>
<path d="M28.1899 20.4046L22.126 20.4033L22.1384 34.3791C22.1322 37.1839 22.3079 40.1802 21.8946 42.9518C22.7419 44.2095 23.6058 45.3405 24.6454 46.4491C25.7222 47.5399 26.9582 48.4773 28.1528 49.4391C27.9791 39.7839 27.9192 30.0558 28.1899 20.4046Z" fill="#213855"/>
<path d="M59.0672 27.861L52.9227 27.8447L52.9247 42.4086C52.9289 44.6241 52.6457 47.2601 53.1087 49.3974C55.5185 48.1185 57.3766 45.4229 59.1189 43.3951C59.3462 38.2461 59.1788 33.0136 59.0672 27.861Z" fill="#213855"/>
<path d="M48.8266 33.9934C46.8156 33.8917 44.7695 33.9697 42.7544 33.9748C42.7069 40.3824 42.4713 46.8711 42.7916 53.27C44.8047 53.1845 46.8694 52.4396 48.808 51.9104C48.8597 45.9458 49.0209 39.9546 48.8266 33.9934Z" fill="#213855"/>
</svg>
