<svg width="24" height="24" viewBox="0 0 24 24" fill="none" xmlns="http://www.w3.org/2000/svg">
<path d="M4.26 10.147a60.438 60.438 0 00-.491 6.347A48.62 48.62 0 0112 20.904a48.62 48.62 0 018.232-4.41 60.46 60.46 0 00-.491-6.347m-15.482 0a50.636 50.636 0 00-2.658-.813A59.906 59.906 0 0112 3.493a59.903 59.903 0 0110.399 5.84c-.896.248-1.783.52-2.658.814m-15.482 0A50.717 50.717 0 0112 13.489a50.702 50.702 0 017.74-3.342M6.75 15a.75.75 0 100-1.5.75.75 0 000 1.5zm6 0a.75.75 0 100-1.5.75.75 0 000 1.5zm6 0a.75.75 0 100-1.5.75.75 0 000 1.5z" stroke="#213855" stroke-width="1.5" stroke-linecap="round" stroke-linejoin="round"/>
</svg>
