<svg width="163" height="154" viewBox="0 0 163 154" fill="none" xmlns="http://www.w3.org/2000/svg">
<mask id="mask0_348_6705" style="mask-type:luminance" maskUnits="userSpaceOnUse" x="0" y="0" width="163" height="154">
<path d="M0 0H162.667V153.333H0V0Z" fill="white"/>
</mask>
<g mask="url(#mask0_348_6705)">
<mask id="mask1_348_6705" style="mask-type:luminance" maskUnits="userSpaceOnUse" x="-19" y="-24" width="201" height="201">
<path d="M-18.8804 30.5889L127.151 -23.9268L181.562 121.818L35.5259 176.334L-18.8804 30.5889Z" fill="white"/>
</mask>
<g mask="url(#mask1_348_6705)">
<mask id="mask2_348_6705" style="mask-type:luminance" maskUnits="userSpaceOnUse" x="0" y="0" width="162" height="153">
<path d="M151.911 49.8592C149.073 42.2499 149.849 32.7655 144.963 26.7915C139.916 20.5728 130.187 19.2238 123.521 14.9738C116.776 10.6874 111.656 2.67174 103.833 0.650907C96.0831 -1.33868 87.2654 3.04674 79.0206 3.46862C71.057 3.92174 62.0049 0.395699 54.1091 3.33841C46.2133 6.28632 41.6456 14.8645 35.3747 19.7603C28.8643 24.8176 19.2966 27.2915 14.7601 33.9009C10.1716 40.5572 11.5622 49.9634 9.27577 57.6249C6.99452 65.2134 0.557017 72.5988 0.791391 80.6092C1.0466 88.3176 7.81743 94.9842 10.656 102.588C13.4945 110.193 12.7237 119.677 17.6091 125.656C22.6508 131.875 32.3851 133.219 39.0466 137.469C45.7966 141.755 50.9112 149.771 58.7393 151.797C66.4945 153.812 75.3174 149.427 83.5779 148.963C91.5414 148.516 100.593 152.042 108.489 149.094C116.385 146.146 120.953 137.568 127.224 132.672C133.734 127.62 143.302 125.14 147.838 118.536C152.422 111.875 151.036 102.469 153.323 94.8124C155.604 87.2186 162.041 79.8384 161.776 71.8384C161.541 64.0884 154.739 57.4322 151.911 49.8592Z" fill="white"/>
</mask>
<g mask="url(#mask2_348_6705)">
<mask id="mask3_348_6705" style="mask-type:luminance" maskUnits="userSpaceOnUse" x="-1" y="0" width="164" height="154">
<path d="M162.666 0H-0.000488281V153.333H162.666V0Z" fill="white"/>
</mask>
<g mask="url(#mask3_348_6705)">
<mask id="mask4_348_6705" style="mask-type:luminance" maskUnits="userSpaceOnUse" x="0" y="0" width="163" height="154">
<path d="M0.426758 0H162.349V153.333H0.426758V0Z" fill="white"/>
</mask>
<g mask="url(#mask4_348_6705)">
<mask id="mask5_348_6705" style="mask-type:luminance" maskUnits="userSpaceOnUse" x="-19" y="-24" width="201" height="201">
<path d="M-18.8804 30.5889L127.151 -23.9268L181.562 121.818L35.5259 176.334L-18.8804 30.5889Z" fill="white"/>
</mask>
<g mask="url(#mask5_348_6705)">
<mask id="mask6_348_6705" style="mask-type:luminance" maskUnits="userSpaceOnUse" x="0" y="0" width="162" height="153">
<path d="M151.911 49.8592C149.073 42.2499 149.849 32.7655 144.963 26.7915C139.916 20.5728 130.187 19.2238 123.521 14.9738C116.776 10.6874 111.656 2.67174 103.833 0.650907C96.0831 -1.33868 87.2654 3.04674 79.0206 3.46862C71.057 3.92174 62.0049 0.395699 54.1091 3.33841C46.2133 6.28632 41.6456 14.8644 35.3747 19.7603C28.8643 24.8176 19.2966 27.2915 14.7601 33.9009C10.1716 40.5572 11.5622 49.9634 9.27577 57.6249C6.99452 65.2134 0.557017 72.5988 0.791391 80.6092C1.0466 88.3176 7.81743 94.9842 10.656 102.588C13.4945 110.193 12.7237 119.677 17.6091 125.656C22.6508 131.875 32.3851 133.219 39.0466 137.469C45.7966 141.755 50.9112 149.771 58.7393 151.797C66.4945 153.812 75.3174 149.427 83.5779 148.963C91.5414 148.516 100.593 152.042 108.489 149.094C116.385 146.146 120.953 137.568 127.224 132.672C133.734 127.62 143.302 125.14 147.838 118.536C152.422 111.875 151.036 102.469 153.323 94.8124C155.604 87.2186 162.041 79.8384 161.776 71.8384C161.541 64.0884 154.739 57.4322 151.911 49.8592Z" fill="white"/>
</mask>
<g mask="url(#mask6_348_6705)">
<path d="M-20.3335 31.1302L128.609 -24.4688L183.015 121.271L34.0728 176.875L-20.3335 31.1302Z" fill="#CC5725"/>
</g>
</g>
</g>
</g>
</g>
</g>
</g>
</svg>
