<svg width="32" height="32" viewBox="0 0 32 32" fill="none" xmlns="http://www.w3.org/2000/svg">
<path d="M12.0001 6.66663C12.0001 6.313 11.8596 5.97387 11.6096 5.72382C11.3595 5.47377 11.0204 5.33329 10.6667 5.33329H8.00008C7.64646 5.33329 7.30732 5.47377 7.05727 5.72382C6.80722 5.97387 6.66675 6.313 6.66675 6.66663V25.3333C6.66675 25.6869 6.80722 26.0261 7.05727 26.2761C7.30732 26.5262 7.64646 26.6666 8.00008 26.6666H10.6667C11.0204 26.6666 11.3595 26.5262 11.6096 26.2761C11.8596 26.0261 12.0001 25.6869 12.0001 25.3333M12.0001 6.66663V25.3333M12.0001 6.66663C12.0001 6.313 12.1406 5.97387 12.3906 5.72382C12.6407 5.47377 12.9798 5.33329 13.3334 5.33329H16.0001C16.3537 5.33329 16.6928 5.47377 16.9429 5.72382C17.1929 5.97387 17.3334 6.313 17.3334 6.66663V25.3333C17.3334 25.6869 17.1929 26.0261 16.9429 26.2761C16.6928 26.5262 16.3537 26.6666 16.0001 26.6666H13.3334C12.9798 26.6666 12.6407 26.5262 12.3906 26.2761C12.1406 26.0261 12.0001 25.6869 12.0001 25.3333M6.66675 10.6666H12.0001M12.0001 21.3333H17.3334M18.6667 12L24.0001 10.6666M21.3334 21.3333L26.5641 20.0267M18.4042 6.08002L21.3162 5.37335C22.0655 5.19335 22.8268 5.62668 23.0255 6.34935L27.9522 24.24C28.0391 24.5676 28.0006 24.9157 27.8442 25.2164C27.6879 25.517 27.4249 25.7484 27.1069 25.8653L26.9295 25.92L24.0175 26.6267C23.2682 26.8067 22.5069 26.3734 22.3082 25.6507L17.3815 7.76002C17.2946 7.43248 17.3331 7.0843 17.4895 6.78366C17.6458 6.48302 17.9088 6.25159 18.2269 6.13468L18.4042 6.08002Z" stroke="#213855" stroke-width="1.7" stroke-linecap="round" stroke-linejoin="round"/>
</svg>
